<?xml version="1.0" standalone="no"?>
<!DOCTYPE svg PUBLIC "-//W3C//DTD SVG 20010904//EN"
 "http://www.w3.org/TR/2001/REC-SVG-20010904/DTD/svg10.dtd">
<svg version="1.0" xmlns="http://www.w3.org/2000/svg"
 width="4114.000000pt" height="4114.000000pt" viewBox="0 0 4114.000000 4114.000000"
 preserveAspectRatio="xMidYMid meet">

<g transform="translate(0.000000,4114.000000) scale(0.100000,-0.100000)"
fill="#000000" stroke="none">
<path d="M3566 19843 c-4 -4 -37 -11 -74 -15 -37 -4 -98 -14 -137 -23 -38 -9
-85 -19 -103 -22 -18 -3 -35 -9 -38 -14 -3 -5 -16 -9 -29 -9 -13 0 -27 -4 -30
-10 -3 -5 -17 -10 -30 -10 -13 0 -26 -4 -29 -9 -3 -5 -17 -12 -31 -15 -24 -6
-125 -50 -185 -80 -60 -31 -130 -72 -188 -112 -35 -24 -65 -44 -68 -44 -13 0
-148 -117 -234 -202 -102 -100 -138 -140 -185 -203 -16 -22 -33 -41 -37 -43
-4 -2 -8 -10 -8 -17 0 -7 -4 -15 -9 -17 -12 -4 -139 -216 -169 -280 -12 -26
-34 -78 -48 -115 -14 -38 -30 -77 -34 -88 -19 -42 -60 -192 -60 -216 0 -14 -4
-29 -9 -34 -5 -6 -12 -30 -15 -55 -3 -25 -9 -72 -15 -105 -12 -78 -12 -444 0
-515 27 -154 40 -217 57 -280 16 -59 52 -164 62 -182 6 -10 10 -23 10 -29 0
-11 118 -255 132 -274 27 -34 78 -116 78 -124 0 -5 3 -11 8 -13 4 -1 20 -21
37 -43 87 -117 291 -319 417 -413 53 -40 99 -72 103 -72 3 0 25 -13 48 -28 23
-16 58 -37 77 -47 109 -55 172 -85 180 -85 6 0 18 -4 28 -9 57 -29 213 -81
243 -81 10 0 20 -4 23 -9 3 -5 23 -11 43 -14 21 -3 85 -13 143 -22 146 -25
456 -25 600 -1 58 10 121 20 140 22 19 3 44 9 55 14 11 4 61 20 110 35 50 14
99 30 110 35 165 69 216 95 414 215 100 61 357 296 427 390 16 22 35 47 43 55
54 56 204 317 251 436 13 33 29 75 37 94 8 19 19 44 23 55 5 11 11 31 13 45 3
14 13 54 22 90 19 75 32 140 47 225 13 74 19 464 8 485 -5 9 -9 40 -11 70 -1
30 -6 64 -10 75 -4 11 -14 56 -24 100 -18 87 -31 134 -50 180 -7 17 -16 41
-20 55 -15 53 -116 264 -160 335 -13 22 -32 54 -41 70 -9 17 -20 32 -23 35 -4
3 -29 36 -57 75 -61 87 -223 256 -329 343 -44 37 -81 70 -83 75 -2 4 -8 7 -14
7 -5 0 -24 11 -41 24 -80 61 -334 191 -442 227 -22 7 -44 17 -50 21 -5 4 -21
8 -36 8 -15 0 -30 4 -33 9 -3 5 -18 11 -33 14 -16 3 -62 13 -103 22 -41 9
-102 19 -135 22 -33 3 -64 9 -69 14 -12 11 -449 12 -460 2z m409 -658 c151
-21 267 -55 405 -119 31 -14 167 -93 183 -106 7 -5 39 -31 72 -57 180 -143
328 -342 417 -563 6 -14 14 -32 18 -40 4 -8 15 -49 25 -90 10 -41 21 -83 26
-92 5 -10 9 -45 9 -77 0 -33 5 -63 10 -66 6 -4 10 -58 10 -130 0 -72 -4 -126
-10 -130 -5 -3 -10 -35 -10 -70 0 -35 -4 -67 -10 -70 -5 -3 -10 -17 -10 -29 0
-24 -23 -109 -42 -156 -6 -14 -14 -34 -18 -45 -12 -31 -64 -139 -70 -145 -3
-3 -12 -18 -20 -35 -21 -41 -106 -164 -140 -200 -144 -155 -250 -239 -405
-319 -100 -52 -243 -106 -281 -106 -11 0 -24 -4 -29 -9 -6 -5 -30 -11 -55 -14
-25 -3 -70 -10 -100 -16 -70 -12 -238 -12 -310 0 -30 5 -76 12 -103 15 -26 4
-50 11 -53 15 -3 5 -16 9 -29 9 -13 0 -34 4 -47 9 -13 5 -41 14 -63 21 -113
36 -291 137 -403 228 -58 47 -212 202 -212 213 0 3 -11 19 -25 35 -14 16 -28
37 -31 47 -3 9 -9 17 -13 17 -4 0 -13 16 -21 35 -8 19 -17 35 -20 35 -5 0 -66
124 -90 185 -27 69 -52 160 -71 260 -17 92 -17 351 0 440 15 79 57 238 70 263
5 9 30 61 55 114 67 139 137 239 246 348 92 93 198 180 220 180 5 0 10 4 10 8
0 4 26 21 58 37 31 17 59 32 62 35 3 3 16 10 30 16 149 69 274 103 455 127 70
9 217 6 310 -8z"/>
<path d="M11370 19833 c-68 -29 -135 -109 -157 -188 -31 -106 -33 -149 -33
-629 0 -275 -4 -497 -9 -500 -5 -3 -19 2 -32 12 -105 76 -338 175 -494 210
-156 35 -397 45 -530 23 -87 -14 -164 -31 -190 -41 -11 -5 -54 -20 -95 -35
-197 -71 -387 -191 -535 -341 -82 -82 -195 -223 -195 -243 0 -6 -4 -11 -9 -11
-5 0 -11 -8 -14 -17 -3 -10 -19 -40 -35 -68 -15 -27 -41 -81 -56 -120 -15 -38
-32 -78 -37 -87 -5 -10 -9 -25 -9 -33 0 -8 -4 -23 -9 -33 -10 -19 -34 -126
-52 -237 -15 -91 -6 -345 16 -450 9 -44 18 -95 22 -113 3 -18 9 -35 14 -38 5
-3 9 -15 9 -28 0 -12 4 -26 8 -31 4 -6 16 -35 27 -65 88 -257 343 -556 600
-705 160 -93 292 -143 490 -187 125 -27 530 -13 620 22 11 4 61 20 110 36 89
28 267 110 273 126 2 4 8 8 14 8 5 0 25 12 43 26 41 31 69 28 73 -6 1 -14 14
-47 27 -75 45 -91 97 -134 194 -161 53 -15 72 -16 117 -6 121 25 177 74 232
202 30 70 32 205 32 1800 0 1562 -3 1728 -29 1795 -40 99 -77 145 -145 178
-47 23 -67 27 -138 26 -50 0 -97 -7 -118 -16z m-840 -1702 c41 -9 93 -25 115
-35 82 -37 145 -70 145 -78 0 -4 7 -8 15 -8 8 0 15 -4 15 -9 0 -5 8 -12 18
-16 23 -8 98 -79 147 -140 22 -27 43 -51 48 -53 4 -2 7 -10 7 -17 0 -7 4 -15
8 -17 9 -3 69 -126 90 -183 22 -60 42 -186 42 -269 0 -95 -23 -230 -51 -291
-9 -22 -20 -50 -24 -62 -13 -45 -124 -200 -186 -259 -186 -178 -453 -267 -689
-230 -216 33 -347 96 -491 237 -103 101 -167 198 -204 309 -10 30 -21 64 -26
75 -10 26 -18 80 -25 183 -14 189 61 423 179 559 154 177 262 245 497 311 61
17 286 13 370 -7z"/>
<path d="M20865 19841 c-6 -5 -37 -11 -70 -14 -76 -5 -187 -27 -199 -38 -6 -5
-20 -9 -33 -9 -13 0 -31 -4 -41 -9 -9 -5 -35 -14 -57 -20 -208 -62 -449 -195
-645 -357 -67 -56 -252 -240 -290 -290 -8 -11 -28 -37 -45 -59 -16 -22 -33
-41 -37 -43 -4 -2 -8 -8 -8 -13 0 -8 -47 -87 -60 -99 -3 -3 -14 -23 -26 -45
-11 -22 -32 -60 -45 -85 -14 -25 -38 -76 -53 -115 -16 -38 -33 -81 -38 -95 -6
-14 -14 -33 -19 -42 -5 -10 -9 -26 -9 -36 0 -10 -4 -22 -8 -27 -5 -6 -17 -48
-27 -95 -10 -47 -22 -89 -27 -95 -4 -5 -8 -30 -8 -56 0 -26 -4 -50 -9 -53 -14
-9 -22 -350 -11 -476 14 -167 20 -213 30 -235 4 -11 15 -49 24 -85 33 -131 37
-144 68 -220 8 -19 21 -51 28 -70 7 -19 17 -39 22 -44 4 -6 8 -18 8 -27 0 -10
3 -19 8 -21 4 -1 21 -30 37 -63 114 -228 338 -493 550 -650 22 -17 42 -32 45
-35 3 -3 41 -29 85 -57 94 -61 247 -139 380 -193 30 -12 104 -36 155 -50 25
-7 56 -16 70 -20 77 -24 253 -48 410 -56 190 -10 490 19 585 56 11 5 49 16 85
25 128 34 325 117 428 182 29 18 57 33 62 33 6 0 10 5 10 10 0 6 4 10 10 10
23 0 245 173 320 251 70 71 149 162 194 224 17 22 33 42 36 45 4 3 27 37 52
77 97 150 123 296 75 413 -27 66 -47 91 -107 134 -94 68 -207 75 -321 19 -74
-37 -109 -72 -169 -168 -51 -82 -172 -235 -226 -286 -60 -56 -207 -169 -220
-169 -7 0 -14 -4 -16 -8 -5 -14 -188 -98 -253 -117 -33 -9 -68 -21 -77 -26
-10 -5 -30 -9 -46 -9 -15 0 -32 -4 -38 -10 -5 -5 -27 -10 -49 -11 -22 -1 -45
-6 -51 -11 -20 -15 -264 -21 -349 -8 -44 6 -98 14 -120 17 -22 3 -44 9 -49 14
-6 5 -20 9 -33 9 -13 0 -31 4 -41 9 -9 5 -35 14 -57 21 -100 31 -200 81 -313
157 -83 56 -81 55 -184 153 -82 77 -208 235 -208 260 0 6 -4 10 -9 10 -5 0
-11 8 -14 18 -3 9 -13 28 -21 42 -14 22 -50 100 -76 165 -19 47 -40 120 -40
141 0 13 -4 26 -10 29 -5 3 -10 28 -10 55 0 27 -4 52 -10 55 -6 4 -10 78 -10
190 0 112 4 186 10 190 6 3 10 28 10 55 0 27 5 52 10 55 6 3 10 17 10 30 0 23
20 95 39 140 62 145 102 222 147 282 13 17 24 36 24 42 0 6 3 11 8 11 4 0 14
11 23 25 26 44 191 205 259 253 36 26 67 49 70 52 17 18 243 130 263 130 9 0
19 5 22 10 3 6 15 10 26 10 10 0 27 4 37 10 61 33 317 65 457 57 139 -9 341
-50 380 -77 6 -4 23 -10 40 -14 62 -15 264 -124 273 -147 2 -5 8 -9 14 -9 18
0 130 -95 203 -172 85 -90 122 -135 203 -251 35 -49 73 -98 85 -108 39 -32
111 -66 170 -79 127 -29 269 44 330 170 18 37 22 62 21 145 0 85 -4 109 -27
164 -15 35 -38 79 -52 97 -14 18 -25 37 -25 41 0 5 -8 18 -17 29 -10 10 -45
55 -78 99 -71 94 -222 248 -320 327 -79 63 -267 188 -283 188 -6 0 -12 3 -14
8 -3 7 -150 82 -162 82 -3 0 -25 9 -49 19 -86 39 -232 82 -378 111 -140 28
-165 30 -378 30 -125 0 -231 -4 -236 -9z"/>
<path d="M6650 18781 c-77 -17 -142 -69 -179 -146 -60 -125 -60 -128 -61
-1334 0 -1121 2 -1169 41 -1258 11 -24 19 -47 19 -51 0 -5 19 -29 43 -55 58
-63 123 -91 212 -91 157 0 261 96 294 269 7 39 12 276 15 670 3 591 9 714 37
767 5 10 9 25 9 33 0 9 12 52 26 97 67 208 218 408 340 452 27 9 57 21 66 27
26 13 207 11 248 -4 41 -15 123 -57 130 -66 3 -4 22 -17 43 -30 21 -13 43 -28
50 -35 6 -7 39 -25 72 -42 51 -25 71 -29 140 -29 116 1 176 34 230 130 26 45
29 59 29 135 -1 70 -6 95 -27 144 -30 66 -126 166 -217 225 -30 20 -57 38 -60
42 -10 11 -160 79 -174 79 -8 0 -17 4 -20 9 -3 5 -18 11 -33 14 -16 3 -56 12
-91 21 -103 26 -243 31 -357 11 -101 -17 -156 -30 -187 -46 -10 -5 -22 -9 -28
-9 -16 0 -121 -52 -178 -88 -58 -37 -83 -38 -92 -5 -10 43 -67 108 -117 135
-54 30 -158 43 -223 29z"/>
<path d="M30490 18779 c-99 -14 -181 -74 -228 -163 -22 -44 -26 -64 -27 -142
l0 -91 425 -849 c234 -467 427 -851 430 -854 3 -3 83 -160 178 -350 95 -190
185 -359 200 -375 48 -55 96 -83 170 -100 120 -29 221 1 305 90 49 52 105 160
944 1840 157 314 289 578 294 587 5 10 9 56 9 102 0 72 -4 92 -27 136 -34 66
-80 112 -145 144 -44 22 -65 26 -137 26 -146 -1 -230 -58 -304 -209 -23 -47
-44 -88 -47 -91 -9 -9 -220 -439 -220 -449 0 -5 -3 -11 -7 -13 -5 -1 -136
-259 -292 -571 -210 -419 -289 -567 -300 -565 -10 2 -118 208 -276 523 -143
286 -262 522 -265 525 -10 10 -80 157 -80 168 0 5 -3 12 -7 14 -5 2 -21 32
-38 68 -16 36 -32 67 -35 70 -9 8 -80 160 -80 170 0 4 -3 10 -7 12 -5 2 -32
51 -61 111 -58 115 -106 174 -175 208 -49 25 -133 37 -197 28z"/>
<path d="M37905 18780 c-106 -11 -230 -37 -290 -60 -125 -50 -164 -67 -187
-82 -14 -10 -29 -18 -33 -18 -3 0 -43 -28 -88 -62 -113 -85 -215 -213 -261
-328 -55 -136 -59 -160 -59 -310 0 -156 15 -230 70 -329 107 -194 325 -356
594 -440 57 -19 113 -37 124 -41 11 -5 31 -11 45 -13 14 -3 70 -17 125 -32 55
-15 116 -30 135 -35 19 -5 51 -13 70 -19 44 -13 148 -41 178 -48 12 -3 25 -9
28 -14 3 -5 12 -9 21 -9 27 0 166 -71 212 -109 68 -55 91 -99 91 -172 0 -61 0
-61 -58 -119 -76 -75 -140 -104 -282 -126 -96 -15 -126 -15 -202 -5 -183 24
-376 127 -569 302 -169 154 -198 169 -317 169 -67 0 -84 -4 -127 -29 -27 -16
-60 -39 -72 -52 -29 -33 -63 -96 -63 -119 0 -10 -4 -22 -10 -25 -32 -20 6
-168 71 -270 99 -157 439 -402 644 -464 22 -7 49 -16 60 -20 111 -46 492 -68
695 -42 344 45 611 194 766 426 108 162 160 394 123 552 -26 114 -64 214 -96
253 -6 8 -29 38 -51 65 -68 88 -197 192 -307 247 -87 44 -229 98 -257 98 -9 0
-19 4 -22 9 -3 5 -18 11 -33 14 -26 5 -174 42 -397 102 -252 67 -379 123 -463
204 -41 39 -73 101 -73 141 0 91 110 193 255 236 46 14 94 18 210 18 139 -1
155 -3 224 -28 125 -47 293 -147 376 -223 212 -195 245 -214 365 -215 71 -1
92 2 125 21 48 27 115 90 115 108 0 7 3 13 8 13 14 0 32 79 32 139 0 62 -5 79
-49 171 -31 66 -182 222 -286 295 -38 27 -71 53 -73 57 -2 4 -8 8 -13 8 -5 0
-32 15 -61 33 -46 29 -120 66 -193 97 -56 24 -150 50 -232 65 -107 18 -419 28
-538 15z"/>
<path d="M16129 18756 c-84 -34 -123 -80 -167 -196 -22 -57 -31 -507 -30
-1440 0 -803 6 -1017 27 -1065 29 -67 38 -84 68 -122 51 -64 119 -93 217 -93
153 1 251 80 289 235 6 23 13 300 17 650 6 583 15 763 40 823 6 13 10 34 10
47 0 13 5 27 10 30 6 3 10 17 10 30 0 13 5 27 10 30 6 3 10 12 10 20 0 24 57
138 108 215 57 88 141 168 209 200 81 38 176 53 252 40 96 -17 135 -34 241
-108 161 -112 249 -134 363 -92 137 51 197 211 142 374 -34 99 -202 252 -350
320 -22 10 -58 27 -79 37 -22 11 -46 19 -53 19 -7 0 -21 4 -31 9 -76 39 -267
58 -406 42 -56 -7 -116 -16 -133 -22 -18 -5 -50 -14 -70 -20 -21 -6 -47 -14
-58 -19 -81 -35 -147 -68 -186 -96 -47 -33 -79 -32 -79 3 0 20 -64 107 -93
125 -78 51 -199 61 -288 24z"/>
<path d="M27279 18764 c-64 -19 -134 -84 -165 -151 -18 -41 -27 -82 -33 -157
-10 -125 -11 -2156 -1 -2281 15 -194 85 -289 238 -325 61 -14 116 -8 182 21
61 27 106 72 143 144 l31 60 6 675 c4 450 10 685 17 705 6 17 19 57 29 90 22
74 94 219 129 260 137 160 256 243 435 304 68 23 245 34 353 22 323 -34 596
-263 707 -591 27 -80 33 -194 40 -785 4 -359 11 -637 17 -661 38 -155 147
-249 288 -249 146 0 247 90 287 255 10 43 13 205 13 735 0 628 -1 685 -18 745
-10 36 -22 81 -26 100 -10 44 -49 159 -62 182 -5 10 -9 25 -9 33 0 8 -4 15
-10 15 -5 0 -10 6 -10 14 0 22 -104 197 -160 270 -60 78 -179 197 -269 269
-70 56 -263 167 -334 191 -23 8 -80 28 -127 44 -141 49 -197 57 -420 57 -196
0 -243 -5 -365 -37 -154 -41 -335 -119 -428 -185 -27 -19 -55 -33 -64 -31 -8
2 -23 27 -33 56 -27 75 -65 137 -103 166 -71 53 -184 70 -278 40z"/>
<path d="M35921 18763 c-83 -29 -173 -144 -183 -233 -4 -36 -29 -35 -89 3
-124 79 -348 177 -406 177 -12 0 -24 4 -27 9 -6 9 -15 11 -171 31 -110 15
-394 6 -480 -14 -144 -33 -432 -149 -443 -178 -2 -4 -7 -8 -12 -8 -26 0 -189
-129 -280 -220 -157 -158 -274 -345 -341 -542 -59 -176 -74 -273 -73 -488 0
-185 7 -252 38 -365 96 -355 295 -633 612 -853 52 -36 212 -116 290 -144 176
-64 311 -88 509 -88 192 0 291 17 474 78 106 35 237 99 325 158 52 35 76 33
76 -7 0 -11 4 -27 9 -37 5 -9 15 -30 22 -46 22 -46 79 -101 134 -127 71 -34
169 -33 246 2 68 32 103 68 135 136 52 110 54 140 54 1307 0 1097 -1 1135 -38
1271 -41 150 -222 234 -381 178z m-915 -633 c162 -18 323 -100 455 -230 131
-130 176 -209 240 -426 12 -39 12 -336 0 -366 -5 -13 -16 -48 -26 -78 -19 -57
-55 -141 -64 -150 -4 -3 -13 -18 -21 -34 -27 -52 -137 -172 -205 -223 -99 -74
-219 -132 -325 -156 -69 -15 -309 -20 -355 -7 -202 57 -291 103 -407 209 -68
63 -148 160 -148 180 0 5 -4 11 -8 13 -7 3 -56 100 -72 143 -64 175 -64 426
-1 580 25 61 85 175 92 175 4 0 11 9 14 20 9 27 158 178 216 217 48 33 140 78
224 109 86 31 245 41 391 24z"/>
<path d="M26033 18758 c-24 -6 -43 -15 -43 -19 0 -5 -6 -9 -14 -9 -36 0 -111
-117 -130 -203 -9 -41 -29 -43 -80 -8 -24 17 -49 31 -55 31 -6 0 -11 3 -11 8
0 4 -15 13 -32 21 -18 8 -62 28 -98 45 -61 30 -183 71 -275 95 -126 31 -336
45 -470 31 -166 -18 -242 -37 -400 -99 -99 -39 -265 -133 -339 -191 -60 -47
-193 -174 -241 -231 -94 -111 -211 -323 -256 -464 -12 -38 -25 -79 -29 -90
-14 -38 -30 -141 -41 -263 -12 -127 -1 -327 22 -417 26 -101 33 -124 56 -190
36 -103 40 -111 88 -200 52 -95 99 -170 125 -195 3 -3 23 -27 45 -55 51 -63
129 -139 195 -190 29 -22 57 -44 64 -50 43 -38 294 -175 321 -175 4 0 21 -6
38 -14 18 -8 43 -17 57 -20 14 -4 48 -13 75 -21 209 -57 528 -58 720 -4 168
48 393 149 456 205 24 22 48 17 60 -13 48 -122 85 -169 161 -207 42 -21 66
-26 127 -26 154 0 251 82 293 245 10 39 13 304 13 1230 l0 1180 -23 68 c-30
91 -77 148 -149 182 -45 22 -169 29 -230 13z m-833 -648 c66 -24 75 -28 134
-54 115 -52 238 -152 311 -251 17 -22 33 -42 36 -45 6 -5 77 -142 90 -175 31
-78 39 -141 39 -302 0 -153 -2 -176 -25 -245 -27 -83 -82 -196 -117 -243 -33
-42 -157 -166 -197 -195 -18 -14 -63 -41 -100 -61 -62 -34 -98 -48 -211 -81
-61 -18 -320 -17 -380 1 -91 28 -186 65 -212 83 -14 10 -29 18 -33 18 -12 0
-112 79 -164 131 -93 92 -170 218 -204 334 -8 28 -20 68 -26 90 -18 60 -10
324 12 400 54 184 175 352 337 467 91 64 193 109 325 142 40 10 350 -1 385
-14z"/>
<path d="M13750 18754 c-221 -18 -511 -127 -708 -266 -79 -57 -241 -208 -302
-283 -69 -84 -175 -268 -205 -355 -11 -30 -23 -59 -27 -64 -4 -6 -8 -19 -8
-31 0 -12 -4 -25 -8 -30 -10 -12 -28 -85 -47 -195 -28 -161 -15 -471 24 -590
5 -14 14 -45 21 -70 7 -25 16 -54 20 -65 40 -104 66 -164 82 -187 10 -14 18
-30 18 -35 0 -13 112 -174 153 -222 110 -126 255 -252 357 -308 131 -73 288
-143 320 -143 10 0 21 -4 24 -9 3 -5 20 -11 38 -14 18 -4 83 -15 143 -26 150
-27 334 -27 480 0 61 11 125 23 143 26 18 3 35 9 38 14 3 5 15 9 28 9 12 0 26
4 31 8 6 5 33 17 60 27 185 67 415 226 533 369 38 47 75 140 78 199 7 114 -57
229 -153 278 -75 39 -240 32 -283 -11 -3 -3 -23 -19 -45 -35 -22 -16 -56 -45
-75 -63 -81 -77 -134 -115 -232 -164 -34 -17 -57 -25 -168 -59 -31 -10 -93
-14 -200 -13 -141 1 -163 3 -240 29 -84 27 -144 56 -230 110 -55 35 -176 154
-217 215 -45 67 -93 157 -93 174 0 14 108 16 983 18 l982 3 57 28 c65 32 139
108 173 178 35 74 50 194 35 287 -18 111 -57 262 -90 347 -31 82 -154 305
-179 325 -3 3 -19 23 -35 45 -38 52 -179 193 -231 231 -22 16 -42 32 -45 35
-24 30 -273 164 -365 197 -73 26 -198 57 -285 71 -72 11 -280 20 -350 15z
m367 -646 c23 -7 45 -17 49 -21 4 -4 18 -7 31 -7 13 0 23 -4 23 -10 0 -5 7
-10 16 -10 17 0 107 -50 112 -62 2 -4 10 -8 18 -8 19 0 183 -164 222 -221 46
-68 82 -140 76 -150 -3 -5 -343 -9 -775 -9 -642 0 -770 2 -775 14 -14 36 139
242 236 317 17 13 41 32 53 43 36 31 198 104 277 126 25 7 50 14 55 16 27 10
344 -5 382 -18z"/>
</g>
</svg>
