<?xml version="1.0" standalone="no"?>
<!DOCTYPE svg PUBLIC "-//W3C//DTD SVG 20010904//EN"
 "http://www.w3.org/TR/2001/REC-SVG-20010904/DTD/svg10.dtd">
<svg version="1.0" xmlns="http://www.w3.org/2000/svg"
 width="4114.000000pt" height="4114.000000pt" viewBox="0 0 4114.000000 4114.000000"
 preserveAspectRatio="xMidYMid meet">

<g transform="translate(0.000000,4114.000000) scale(0.100000,-0.100000)"
fill="#000000" stroke="none">
<path d="M20325 28135 c-92 -14 -198 -45 -305 -87 -368 -145 -683 -448 -858
-823 -97 -209 -161 -456 -162 -627 l0 -48 1398 1 c768 1 1476 4 1572 8 l175 6
-3 90 c-4 128 -46 317 -92 420 -5 11 -23 56 -41 100 -17 44 -34 85 -38 90 -5
6 -27 45 -49 87 -119 222 -358 461 -610 611 -26 15 -54 30 -62 33 -8 3 -28 12
-45 19 -60 28 -215 85 -230 85 -9 0 -25 4 -35 10 -67 36 -447 52 -615 25z"/>
<path d="M20050 25989 c-305 -20 -834 -74 -980 -99 -30 -5 -89 -14 -130 -21
-84 -12 -462 -86 -640 -125 -105 -23 -273 -67 -610 -161 -356 -99 -1023 -343
-1317 -483 -48 -23 -106 -49 -128 -57 -60 -24 -604 -302 -735 -376 -376 -213
-849 -523 -1195 -782 -588 -441 -1095 -910 -1641 -1515 -314 -347 -846 -1049
-1052 -1389 -15 -24 -56 -89 -91 -144 -94 -148 -251 -418 -359 -617 -87 -162
-312 -603 -312 -613 0 -3 -22 -53 -50 -111 -27 -58 -50 -108 -50 -110 0 -3
-16 -40 -36 -83 -77 -167 -263 -642 -339 -868 -13 -38 -36 -104 -50 -145 -25
-69 -147 -466 -165 -535 -4 -16 -18 -66 -30 -110 -57 -209 -82 -308 -145 -599
-19 -87 -38 -162 -41 -167 -3 -6 -9 -35 -14 -67 -5 -31 -24 -149 -43 -262 -82
-486 -107 -675 -146 -1150 -35 -411 -39 -484 -29 -495 9 -10 3801 -11 5498 0
1618 9 4967 22 7970 30 1064 3 2435 7 3045 10 611 3 2024 8 3140 11 1117 3
2034 9 2038 14 20 18 -19 543 -68 915 -48 364 -67 499 -80 570 -30 172 -66
362 -75 400 -6 22 -17 76 -26 120 -9 44 -31 145 -50 225 -19 80 -42 174 -50
210 -25 111 -44 179 -95 355 -107 367 -159 530 -229 725 -23 63 -47 133 -54
155 -17 52 -117 307 -161 410 -19 44 -48 114 -64 155 -16 41 -36 89 -44 105
-20 39 -68 146 -98 215 -28 67 -267 546 -307 615 -15 28 -49 88 -74 135 -121
227 -383 658 -527 870 -318 468 -571 792 -989 1273 -252 289 -733 757 -1082
1052 -52 44 -108 92 -125 106 -39 35 -255 204 -410 321 -209 158 -698 490
-830 563 -27 15 -72 42 -100 60 -48 31 -204 120 -400 227 -110 60 -512 261
-615 307 -181 81 -343 151 -351 151 -5 0 -32 11 -61 24 -86 40 -132 58 -428
166 -186 67 -464 157 -605 196 -52 14 -124 33 -310 85 -60 17 -139 37 -175 44
-809 171 -1105 213 -1825 260 -238 16 -845 18 -1055 4z m-2974 -1813 c210 -56
361 -227 402 -458 15 -83 15 -98 0 -183 -22 -133 -71 -230 -162 -321 -77 -77
-126 -106 -269 -158 -179 -66 -499 -231 -719 -372 -152 -96 -380 -254 -398
-275 -3 -3 -27 -20 -53 -38 -47 -32 -202 -154 -317 -250 -663 -552 -1305
-1235 -1885 -2006 -70 -93 -146 -196 -169 -229 -227 -324 -303 -439 -489 -736
-37 -59 -152 -253 -184 -310 -165 -293 -294 -542 -374 -718 -12 -26 -35 -76
-51 -112 -16 -36 -36 -78 -43 -95 -42 -93 -142 -348 -181 -460 -64 -184 -102
-251 -188 -332 -110 -104 -206 -143 -357 -143 -142 0 -253 44 -348 138 -95 94
-128 153 -166 289 -29 104 -17 240 32 388 44 130 73 206 103 272 11 24 20 48
20 53 0 12 73 193 115 285 34 75 75 165 105 230 43 95 80 170 112 231 18 33
43 84 56 112 13 28 65 127 116 219 51 93 106 193 123 223 43 79 237 401 298
495 83 129 362 544 413 616 91 128 228 313 297 402 100 128 268 341 275 347 3
3 21 25 40 50 37 48 183 219 285 335 34 39 82 93 106 120 270 306 750 782
1054 1045 54 47 103 90 109 95 6 6 49 42 96 80 47 38 91 75 99 83 8 7 37 31
65 52 28 21 96 74 151 116 242 188 585 418 830 556 308 174 566 294 745 347
41 13 80 24 85 26 27 9 176 3 221 -9z"/>
<path d="M31810 14367 c-3 -3 -1618 -8 -3590 -12 -1972 -4 -3587 -9 -3590 -10
-3 -2 -1562 -6 -3465 -9 -1903 -3 -3678 -8 -3945 -11 -267 -3 -1810 -8 -3430
-11 -1620 -4 -3467 -9 -4105 -13 l-1160 -6 -69 -33 c-272 -129 -398 -555 -267
-907 61 -164 194 -298 333 -335 38 -10 706 -10 3430 -1 1861 6 4585 13 6053
16 1469 3 2877 7 3130 10 253 3 1457 7 2675 10 1218 3 2627 7 3130 10 503 3
1968 7 3255 10 1287 3 2367 8 2399 11 93 8 170 49 246 130 82 87 123 165 155
290 47 187 28 425 -48 582 -53 109 -160 215 -257 255 -53 21 -68 22 -465 25
-226 2 -413 1 -415 -1z"/>
</g>
</svg>
